# xmcd
#
# Track frame offsets: 
#        150
#        16915
#        44535
#        64385
#        86815
#        106790
#        124332
#        144597
#        166475
#        186302
#        208710
#        229525
#        251000
#        269192
#        286912
#        306582
#
# Disc length: 4445 seconds
#
# Revision: 3
# Processed by: cddbd v1.5.2PL0 Copyright (c) Steve Scherf et al.
# Submitted via: ExactAudioCopyFreeDBPlugin 1.0
#
DISCID=f9115b10
DTITLE=趙詠華 - 擁華
DYEAR=1900
DGENRE=
TTITLE0=簡愛
TTITLE1=風的顏色
TTITLE2=在沙漠的第七天
TTITLE3=只能說遺憾
TTITLE4=灰色的雨滴
TTITLE5=寵物
TTITLE6=請你放心
TTITLE7=女人 顏色
TTITLE8=幸福的可能
TTITLE9=散心
TTITLE10=我想那是你
TTITLE11=我們的故事
TTITLE12=麵包
TTITLE13=愛你一生都太少
TTITLE14=愛不愛
TTITLE15=像我這樣的女人
EXTD=
EXTT0=
EXTT1=
EXTT2=
EXTT3=
EXTT4=
EXTT5=
EXTT6=
EXTT7=
EXTT8=
EXTT9=
EXTT10=
EXTT11=
EXTT12=
EXTT13=
EXTT14=
EXTT15=
PLAYORDER=
